<svg width="177" height="164" viewBox="0 0 177 164" fill="none" xmlns="http://www.w3.org/2000/svg">
<path d="M101.422 92.9388C100.062 93.2633 98.7357 93.844 97.5251 94.6443C94.3716 96.6798 92.5248 99.5396 93.4004 101.031C94.2761 102.523 97.5423 102.082 100.696 100.046C101.922 99.2734 103.014 98.2936 103.904 97.1676C104.317 96.6238 104.395 95.9537 104.104 95.4589L102.966 93.5208C102.677 93.0243 102.071 92.7963 101.422 92.9388Z" fill="#D5D6DB"/>
<path d="M93.5259 65.9464C92.5398 66.1819 91.5779 66.6031 90.7 67.1836C88.414 68.6591 87.0741 70.7327 87.7085 71.8136C88.3429 72.8944 90.7122 72.5741 92.998 71.0987C93.8874 70.5379 94.679 69.8271 95.3243 69.0105C95.6234 68.6164 95.68 68.1309 95.4688 67.7721L94.6451 66.3689C94.4355 66.009 93.9964 65.8432 93.5259 65.9464Z" fill="#D5D6DB"/>
<path d="M80.715 67.2651C80.496 67.2446 80.2618 67.3065 80.0582 67.4383L74.6873 70.9066C74.2381 71.1958 74.0552 71.7411 74.2793 72.1247C74.3305 72.2126 74.4009 72.2873 74.4867 72.3442L87.5995 81.118L105.509 69.5532L80.715 67.2651Z" fill="#029BC5"/>
<path d="M137.056 65.4488L88.4672 96.1952L59.7678 107.873L45.1522 110.972L43.566 108.318L124.55 58.0279C126.964 56.5229 129.647 55.5787 132.329 55.291C133.503 55.1712 134.662 55.1898 135.778 55.3459C136.768 55.4767 137.705 55.7454 138.563 56.1441C139.52 56.5961 141.349 56.619 141.934 57.5421C141.936 57.5405 143.302 61.801 137.056 65.4488Z" fill="#E1E6E9"/>
<path d="M89.2419 92.4993L68.0536 125.805C67.7885 126.273 67.9401 126.788 68.3917 126.957C68.6689 127.061 69.0094 127.012 69.2965 126.828L74.6531 123.399C75.6833 122.74 76.5974 121.909 77.3387 120.957L118.308 73.1403L89.2419 92.4993Z" fill="#029BC5"/>
<path d="M36.2282 91.3301C35.8785 91.2172 35.461 91.2861 35.1073 91.5148L30.666 94.3864C30.0609 94.7774 29.8156 95.5133 30.1179 96.0304C30.1755 96.1287 30.2507 96.2148 30.341 96.2852L42.657 105.922L55.7387 97.6208L36.2282 91.3301Z" fill="#029BC5"/>
<path d="M46.8933 107.821L40.1812 117.11C40.0828 117.244 40.1046 117.409 40.2297 117.479C40.3199 117.53 40.4437 117.518 40.5448 117.45L44.6818 114.807C44.7139 114.786 44.7431 114.761 44.7672 114.732L54.5619 102.926L46.8933 107.821Z" fill="#029BC5"/>
<path d="M134.921 55.8365C133.769 55.673 132.573 55.6544 131.36 55.7806C130.169 57.4328 129.402 59.279 129.135 61.1351C129.114 61.5074 129.415 61.7699 129.808 61.7215C129.93 61.7063 130.052 61.6618 130.161 61.5919L137.796 56.6733C136.91 56.255 135.942 55.9733 134.921 55.8365Z" fill="#029BC5"/>
<path d="M118.332 64.8497L123.339 61.6284L127.926 69.4131L122.919 72.6344L118.332 64.8497Z" fill="#D5D6DB"/>
<path d="M115.215 67.8957C114.612 68.2848 114.366 69.0161 114.667 69.5288L115.154 70.3595C115.475 70.8586 116.216 70.9338 116.808 70.5274C117.373 70.1403 117.604 69.4513 117.337 68.9506L116.85 68.1199C116.55 67.6076 115.818 67.5071 115.215 67.8957Z" fill="#3A556A"/>
<path d="M110.75 70.6681C110.147 71.0573 109.902 71.7885 110.203 72.3013L110.69 73.1319C111.011 73.6311 111.751 73.7063 112.344 73.2998C112.908 72.9127 113.14 72.2238 112.873 71.7231L112.386 70.8924C112.085 70.3803 111.353 70.2798 110.75 70.6681Z" fill="#3A556A"/>
<path d="M106.284 73.4415C105.682 73.8311 105.437 74.5615 105.738 75.0738L106.225 75.9044C106.546 76.4035 107.286 76.4787 107.879 76.0723C108.444 75.6852 108.675 74.9963 108.408 74.4956L107.921 73.6649C107.62 73.1522 106.888 73.0522 106.284 73.4415Z" fill="#3A556A"/>
<path d="M101.82 76.2139C101.218 76.6035 100.973 77.3339 101.274 77.8462L101.761 78.6768C102.082 79.176 102.822 79.2512 103.415 78.8447C103.979 78.4577 104.211 77.7687 103.944 77.268L103.457 76.4373C103.156 75.9248 102.423 75.8247 101.82 76.2139Z" fill="#3A556A"/>
<path d="M97.3562 78.9866C96.7534 79.3764 96.5087 80.1072 96.8093 80.6197L97.2969 81.4508C97.5974 81.9632 98.3298 82.0631 98.9327 81.6741C99.5356 81.2851 99.7807 80.5544 99.4802 80.0421L98.9926 79.211C98.6928 78.6981 97.9607 78.5974 97.3574 78.9858C97.3569 78.9861 97.3567 78.9863 97.3562 78.9866Z" fill="#3A556A"/>
<path d="M92.8918 81.759C92.289 82.1489 92.0443 82.8796 92.345 83.3922L92.8325 84.2233C93.1331 84.7356 93.8655 84.8356 94.4684 84.4466C95.0713 84.0576 95.3164 83.3269 95.0158 82.8145L94.5283 81.9834C94.2285 81.4706 93.4964 81.3699 92.8931 81.7582C92.8926 81.7586 92.8921 81.7589 92.8918 81.759Z" fill="#3A556A"/>
<path d="M88.4272 84.5316C87.8244 84.9214 87.5797 85.6521 87.8804 86.1647L88.3679 86.9958C88.6692 87.5076 89.402 87.6064 90.0042 87.2169C90.6054 86.8281 90.85 86.0989 90.5509 85.5872L90.0634 84.7561C89.763 84.2434 89.0306 84.1428 88.4272 84.5316Z" fill="#3A556A"/>
<path d="M83.9626 87.3041C83.3598 87.6939 83.1151 88.4247 83.4158 88.9372L83.9033 89.7683C84.2046 90.2802 84.9374 90.379 85.5396 89.9895C86.1408 89.6006 86.3854 88.8715 86.0863 88.3597L85.5988 87.5286C85.2984 87.0159 84.566 86.9153 83.9626 87.3041Z" fill="#3A556A"/>
<path d="M79.4984 90.0765C78.8956 90.4663 78.6509 91.1971 78.9515 91.7096L79.4391 92.5407C79.7404 93.0525 80.4731 93.1513 81.0754 92.7618C81.6766 92.373 81.9212 91.6438 81.6221 91.1321L81.1345 90.301C80.8339 89.7885 80.1015 89.6879 79.4984 90.0765Z" fill="#3A556A"/>
<path d="M75.0325 92.8497C74.4297 93.2388 74.1846 93.9695 74.4851 94.4818L74.4857 94.4829L74.9733 95.314C75.2746 95.8258 76.0073 95.9247 76.6096 95.5352C77.2108 95.1463 77.4554 94.4171 77.1562 93.9054L76.6687 93.0743C76.3683 92.5616 75.6359 92.461 75.0325 92.8497Z" fill="#3A556A"/>
<path d="M70.5693 95.6214C69.9664 96.0105 69.7213 96.7411 70.0218 97.2535L70.0225 97.2545L70.51 98.0856C70.8113 98.5974 71.5441 98.6963 72.1463 98.3068C72.7476 97.9179 72.9922 97.1888 72.693 96.677L72.2055 95.846C71.9048 95.3334 71.1724 95.2329 70.5693 95.6214Z" fill="#3A556A"/>
</svg>
